<svg xmlns="http://www.w3.org/2000/svg" xmlns:xlink="http://www.w3.org/1999/xlink" width="500" zoomAndPan="magnify" viewBox="0 0 375 374.999991" height="500" preserveAspectRatio="xMidYMid meet" version="1.0"><defs><g/></defs><rect x="-37.5" width="450" fill="#ffffff" y="-37.499999" height="449.999989" fill-opacity="1"/><rect x="-37.5" width="450" fill="#828282" y="-37.499999" height="449.999989" fill-opacity="1"/><g fill="#ffffff" fill-opacity="1"><g transform="translate(25.531726, 286.317302)"><g><path d="M 146.59375 -82.792969 C 155.496094 -83.386719 163.804688 -86.054688 172.113281 -88.132812 C 174.785156 -88.726562 175.671875 -90.507812 175.375 -93.179688 C 174.785156 -95.847656 173.597656 -97.035156 170.628906 -96.738281 C 169.441406 -96.441406 167.957031 -96.441406 166.472656 -96.144531 C 151.339844 -92.585938 135.613281 -91.695312 119.886719 -90.804688 C 112.464844 -90.210938 112.167969 -90.507812 109.796875 -97.332031 C 104.15625 -112.761719 98.519531 -128.492188 92.882812 -143.921875 C 89.617188 -152.230469 86.945312 -160.835938 85.460938 -169.738281 C 83.089844 -183.09375 83.683594 -196.445312 88.429688 -209.207031 C 89.914062 -213.359375 91.695312 -217.515625 96.441406 -218.109375 C 101.488281 -218.703125 104.15625 -214.84375 106.53125 -211.28125 C 110.6875 -204.753906 113.949219 -197.632812 116.027344 -190.214844 C 117.808594 -183.390625 119.589844 -176.5625 120.777344 -169.738281 C 121.664062 -165.878906 123.445312 -164.398438 127.304688 -164.992188 C 131.457031 -165.585938 135.613281 -166.175781 139.765625 -166.769531 C 145.703125 -167.660156 146 -167.957031 146.59375 -173.894531 C 147.484375 -186.058594 145.109375 -197.335938 140.0625 -208.316406 C 131.753906 -226.714844 110.6875 -237.398438 90.804688 -233.242188 C 71.515625 -229.382812 59.644531 -216.625 54.007812 -198.226562 C 49.554688 -183.390625 50.445312 -168.253906 53.117188 -153.417969 C 56.679688 -132.941406 63.800781 -113.355469 70.03125 -93.773438 C 72.40625 -86.648438 72.40625 -86.648438 64.988281 -85.164062 C 54.898438 -83.386719 44.808594 -80.714844 35.3125 -76.261719 C 19.289062 -68.84375 8.902344 -56.679688 5.636719 -39.171875 C 1.1875 -15.726562 15.132812 9.496094 36.796875 15.726562 C 59.644531 21.960938 81.902344 19.289062 102.378906 7.417969 C 117.511719 -1.484375 125.226562 -15.132812 124.929688 -32.9375 C 124.632812 -45.105469 121.960938 -56.976562 118.996094 -68.546875 C 117.808594 -72.109375 116.027344 -75.671875 116.324219 -80.714844 C 126.710938 -81.605469 136.800781 -82.199219 146.59375 -82.792969 Z M 70.03125 5.042969 C 56.382812 9.792969 43.324219 6.230469 35.015625 -5.042969 C 25.519531 -18.101562 23.144531 -32.640625 28.191406 -48.074219 C 30.863281 -56.085938 35.609375 -62.316406 43.027344 -66.769531 C 51.335938 -72.109375 60.832031 -74.1875 70.625 -76.261719 C 73.59375 -76.855469 75.96875 -75.96875 76.855469 -72.703125 C 81.605469 -56.085938 86.351562 -39.765625 87.242188 -25.222656 C 87.539062 -8.011719 81.902344 0.890625 70.03125 5.042969 Z M 70.03125 5.042969 "/></g></g></g><g fill="#ffffff" fill-opacity="1"><g transform="translate(163.453748, 278.580909)"><g><path d="M 36.71875 -19.179688 C 35.621094 -19.660156 35.417969 -19.59375 34.730469 -18.222656 C 33.222656 -15.277344 31.855469 -12.261719 30.347656 -9.386719 C 28.566406 -5.890625 26.851562 -2.398438 24.59375 0.753906 C 24.25 1.300781 23.976562 1.988281 23.222656 2.191406 C 22.8125 1.371094 22.8125 0.617188 22.8125 -0.207031 C 22.742188 -2.878906 22.8125 -5.617188 23.015625 -8.289062 C 23.429688 -15.617188 23.839844 -22.878906 23.90625 -30.210938 C 23.90625 -31.03125 23.90625 -31.855469 23.703125 -32.675781 C 23.566406 -33.085938 23.429688 -33.5 22.949219 -33.5 C 21.03125 -33.5 19.113281 -33.703125 17.261719 -33.085938 C 16.644531 -32.882812 16.234375 -32.8125 15.617188 -32.949219 C 14.113281 -33.292969 12.605469 -33.566406 11.027344 -33.222656 C 6.234375 -32.332031 3.289062 -29.25 1.4375 -25.003906 C -0.136719 -21.441406 -0.617188 -17.675781 -0.34375 -13.835938 C -0.273438 -11.988281 0.0703125 -10.136719 0.820312 -8.355469 C 1.507812 -6.578125 2.878906 -5.824219 4.726562 -5.824219 C 6.234375 -5.753906 7.535156 -6.300781 8.5625 -7.398438 C 9.523438 -8.496094 10.414062 -9.726562 11.167969 -11.027344 C 11.917969 -12.332031 12.671875 -13.632812 13.496094 -15.003906 C 13.976562 -14.589844 13.769531 -14.179688 13.835938 -13.835938 C 13.976562 -11.167969 14.042969 -8.425781 14.523438 -5.753906 C 14.933594 -2.808594 15.480469 0.136719 16.921875 2.808594 C 18.839844 6.371094 23.839844 6.988281 26.578125 3.972656 C 27.605469 2.878906 28.429688 1.644531 29.113281 0.273438 C 32.058594 -5.410156 34.867188 -11.234375 37.472656 -17.125 C 38.085938 -18.496094 38.019531 -18.632812 36.71875 -19.179688 Z M 15.617188 -28.085938 C 15.550781 -27.332031 15.414062 -26.511719 15.070312 -25.824219 C 12.742188 -20.34375 10.207031 -15.003906 7.125 -9.933594 C 6.644531 -9.179688 6.300781 -8.015625 5.207031 -8.289062 C 4.109375 -8.5625 4.660156 -9.796875 4.519531 -10.617188 C 4.519531 -10.960938 4.519531 -11.371094 4.519531 -11.78125 C 4.660156 -16.714844 5.617188 -21.511719 8.289062 -25.824219 C 9.042969 -26.992188 9.863281 -28.15625 10.890625 -29.183594 C 11.441406 -29.730469 12.054688 -30.140625 12.878906 -30.347656 C 14.660156 -30.828125 15.824219 -29.9375 15.617188 -28.085938 Z M 15.617188 -28.085938 "/></g></g></g><g fill="#ffffff" fill-opacity="1"><g transform="translate(198.730413, 278.580909)"><g><path d="M 13.152344 -33.085938 C 11.441406 -25.210938 10.617188 -17.261719 10.6875 -9.246094 C 10.6875 -5 11.371094 -0.890625 13.496094 2.945312 C 13.90625 3.699219 14.386719 4.453125 15.003906 5.136719 C 16.921875 7.398438 22.742188 7.535156 25.210938 5.136719 C 27.195312 3.152344 28.769531 0.890625 30.074219 -1.574219 C 33.15625 -7.328125 35.140625 -13.5625 36.992188 -19.796875 C 37.199219 -20.550781 37.402344 -21.304688 37.539062 -22.058594 C 37.675781 -22.402344 37.746094 -22.742188 37.402344 -22.949219 C 36.648438 -23.429688 35.828125 -23.359375 35.003906 -23.359375 C 34.390625 -23.359375 34.25 -22.675781 34.113281 -22.195312 C 33.085938 -19.386719 31.992188 -16.507812 31.03125 -13.632812 C 29.660156 -9.453125 28.15625 -5.207031 25.894531 -1.371094 C 24.796875 0.480469 23.632812 2.261719 21.988281 3.699219 C 20.894531 4.660156 20.484375 4.589844 20.003906 3.152344 C 19.179688 0.753906 18.90625 -1.78125 18.769531 -4.316406 C 18.5625 -10.34375 18.90625 -16.304688 19.796875 -22.261719 C 20.34375 -25.757812 20.960938 -29.25 21.375 -32.8125 C 21.714844 -35.347656 20.757812 -36.375 18.152344 -36.375 C 16.371094 -36.375 14.523438 -36.375 12.742188 -36.511719 C 11.167969 -36.582031 9.589844 -36.785156 8.289062 -37.539062 C 6.78125 -38.429688 5.207031 -38.5 3.628906 -38.703125 C 2.601562 -38.839844 1.988281 -38.566406 1.847656 -37.472656 C 1.78125 -36.921875 1.644531 -36.445312 1.574219 -35.964844 C 1.371094 -32.8125 1.027344 -29.660156 0.820312 -26.441406 C 0.480469 -19.730469 -0.207031 -13.085938 -1.300781 -6.4375 C -1.644531 -4.726562 -1.917969 -3.015625 -1.917969 -1.300781 C -1.917969 -0.820312 -1.988281 -0.410156 -1.4375 -0.136719 C 0.410156 0.617188 1.507812 0.0703125 1.988281 -1.78125 C 1.988281 -1.988281 2.054688 -2.191406 2.054688 -2.398438 C 4.042969 -11.304688 5.480469 -20.277344 6.027344 -29.386719 C 6.164062 -31.304688 6.371094 -33.222656 6.507812 -35.347656 C 8.769531 -34.730469 10.960938 -34.664062 13.222656 -34.390625 C 13.425781 -33.773438 13.222656 -33.429688 13.152344 -33.085938 Z M 13.152344 -33.085938 "/></g></g></g><g fill="#ffffff" fill-opacity="1"><g transform="translate(231.47264, 278.580909)"><g><path d="M 23.496094 -9.386719 C 23.566406 -10.207031 23.566406 -11.097656 23.632812 -11.917969 C 24.320312 -17.125 24.523438 -22.46875 24.25 -27.742188 C 24.183594 -29.59375 24.042969 -31.511719 23.632812 -33.292969 C 23.496094 -34.183594 23.085938 -34.59375 22.195312 -34.457031 C 20.824219 -34.25 19.386719 -34.113281 17.949219 -33.910156 C 17.605469 -33.839844 17.125 -33.773438 16.988281 -33.429688 C 16.578125 -32.539062 15.960938 -32.8125 15.34375 -33.019531 C 13.976562 -33.429688 12.535156 -33.359375 11.167969 -33.019531 C 7.054688 -32.058594 4.316406 -29.523438 2.328125 -26.03125 C -0.34375 -21.304688 -1.507812 -16.167969 -1.097656 -10.753906 C -0.960938 -9.246094 -0.617188 -7.808594 0.0703125 -6.4375 C 0.480469 -5.480469 1.097656 -4.660156 2.191406 -4.316406 C 4.863281 -3.5625 7.605469 -3.699219 9.179688 -6.371094 C 9.523438 -7.054688 10 -7.671875 10.34375 -8.355469 C 11.371094 -10.550781 12.398438 -12.671875 13.496094 -14.863281 C 13.632812 -15.207031 13.699219 -15.753906 14.316406 -15.6875 C 14.316406 -15.070312 14.386719 -14.523438 14.316406 -13.976562 C 14.113281 -11.167969 13.769531 -8.425781 13.5625 -5.6875 C 13.425781 -3.972656 12.808594 -3.015625 11.167969 -2.464844 C 8.5625 -1.574219 6.097656 -0.34375 3.90625 1.234375 C 1.917969 2.671875 0.273438 4.316406 -0.480469 6.78125 C -1.710938 10.824219 0.617188 14.25 4.863281 14.660156 C 9.042969 15.003906 12.605469 13.632812 15.414062 10.550781 C 16.785156 9.109375 17.949219 7.46875 18.90625 5.6875 C 20.550781 2.535156 21.648438 -0.753906 22.402344 -4.179688 C 22.605469 -5.136719 23.085938 -5.890625 23.90625 -6.507812 C 26.304688 -8.355469 28.566406 -10.414062 30.691406 -12.605469 C 31.71875 -13.769531 32.675781 -15.003906 33.703125 -16.167969 C 34.320312 -16.921875 33.910156 -17.398438 33.292969 -17.949219 C 32.609375 -18.5625 32.265625 -17.878906 31.921875 -17.46875 C 31.648438 -17.195312 31.441406 -16.851562 31.238281 -16.578125 C 29.046875 -13.769531 26.578125 -11.441406 23.90625 -9.179688 C 23.769531 -9.246094 23.632812 -9.316406 23.496094 -9.386719 Z M 15.34375 -26.511719 C 14.113281 -22.878906 12.535156 -19.453125 10.890625 -16.03125 C 9.726562 -13.5625 8.5625 -11.097656 7.328125 -8.699219 C 6.988281 -8.015625 6.714844 -6.988281 5.824219 -7.191406 C 4.796875 -7.398438 5 -8.496094 4.933594 -9.246094 C 4.726562 -11.714844 5.34375 -14.042969 5.753906 -16.371094 C 6.578125 -20.621094 7.671875 -24.796875 10.207031 -28.429688 C 10.960938 -29.457031 11.644531 -30.414062 12.808594 -30.964844 C 14.523438 -31.785156 15.960938 -30.894531 15.894531 -28.703125 C 15.894531 -28.085938 15.617188 -27.332031 15.34375 -26.511719 Z M 8.90625 10.617188 C 8.835938 10.6875 8.769531 10.6875 8.769531 10.753906 C 7.945312 11.78125 7.125 12.878906 5.617188 12.535156 C 4.042969 12.261719 3.289062 11.027344 2.878906 9.589844 C 2.464844 8.355469 2.738281 7.191406 3.289062 6.027344 C 3.769531 4.863281 4.589844 3.835938 5.546875 2.945312 C 7.535156 1.164062 9.863281 0 12.742188 -1.097656 C 11.988281 3.355469 11.097656 7.191406 8.90625 10.617188 Z M 8.90625 10.617188 "/></g></g></g><g fill="#ffffff" fill-opacity="1"><g transform="translate(262.913406, 278.580909)"><g><path d="M 36.71875 -19.179688 C 35.621094 -19.660156 35.417969 -19.59375 34.730469 -18.222656 C 33.222656 -15.277344 31.855469 -12.261719 30.347656 -9.386719 C 28.566406 -5.890625 26.851562 -2.398438 24.59375 0.753906 C 24.25 1.300781 23.976562 1.988281 23.222656 2.191406 C 22.8125 1.371094 22.8125 0.617188 22.8125 -0.207031 C 22.742188 -2.878906 22.8125 -5.617188 23.015625 -8.289062 C 23.429688 -15.617188 23.839844 -22.878906 23.90625 -30.210938 C 23.90625 -31.03125 23.90625 -31.855469 23.703125 -32.675781 C 23.566406 -33.085938 23.429688 -33.5 22.949219 -33.5 C 21.03125 -33.5 19.113281 -33.703125 17.261719 -33.085938 C 16.644531 -32.882812 16.234375 -32.8125 15.617188 -32.949219 C 14.113281 -33.292969 12.605469 -33.566406 11.027344 -33.222656 C 6.234375 -32.332031 3.289062 -29.25 1.4375 -25.003906 C -0.136719 -21.441406 -0.617188 -17.675781 -0.34375 -13.835938 C -0.273438 -11.988281 0.0703125 -10.136719 0.820312 -8.355469 C 1.507812 -6.578125 2.878906 -5.824219 4.726562 -5.824219 C 6.234375 -5.753906 7.535156 -6.300781 8.5625 -7.398438 C 9.523438 -8.496094 10.414062 -9.726562 11.167969 -11.027344 C 11.917969 -12.332031 12.671875 -13.632812 13.496094 -15.003906 C 13.976562 -14.589844 13.769531 -14.179688 13.835938 -13.835938 C 13.976562 -11.167969 14.042969 -8.425781 14.523438 -5.753906 C 14.933594 -2.808594 15.480469 0.136719 16.921875 2.808594 C 18.839844 6.371094 23.839844 6.988281 26.578125 3.972656 C 27.605469 2.878906 28.429688 1.644531 29.113281 0.273438 C 32.058594 -5.410156 34.867188 -11.234375 37.472656 -17.125 C 38.085938 -18.496094 38.019531 -18.632812 36.71875 -19.179688 Z M 15.617188 -28.085938 C 15.550781 -27.332031 15.414062 -26.511719 15.070312 -25.824219 C 12.742188 -20.34375 10.207031 -15.003906 7.125 -9.933594 C 6.644531 -9.179688 6.300781 -8.015625 5.207031 -8.289062 C 4.109375 -8.5625 4.660156 -9.796875 4.519531 -10.617188 C 4.519531 -10.960938 4.519531 -11.371094 4.519531 -11.78125 C 4.660156 -16.714844 5.617188 -21.511719 8.289062 -25.824219 C 9.042969 -26.992188 9.863281 -28.15625 10.890625 -29.183594 C 11.441406 -29.730469 12.054688 -30.140625 12.878906 -30.347656 C 14.660156 -30.828125 15.824219 -29.9375 15.617188 -28.085938 Z M 15.617188 -28.085938 "/></g></g></g><g fill="#ffffff" fill-opacity="1"><g transform="translate(298.190071, 278.580909)"><g><path d="M 54.050781 -20.414062 C 53.296875 -20.757812 52.679688 -20.757812 52.269531 -19.867188 C 51.992188 -19.179688 51.652344 -18.425781 51.308594 -17.742188 C 49.527344 -14.113281 47.746094 -10.414062 45.554688 -6.988281 C 45.074219 -6.300781 44.59375 -5.617188 43.910156 -5.136719 C 43.292969 -4.660156 42.746094 -4.660156 42.199219 -5.273438 C 41.511719 -6.097656 41.171875 -7.054688 40.964844 -8.082031 C 40.554688 -10.960938 40.144531 -13.835938 40.074219 -16.714844 C 40.007812 -18.839844 39.730469 -20.960938 39.183594 -23.015625 C 38.019531 -27.058594 34.730469 -28.292969 31.238281 -26.03125 C 30.621094 -25.621094 30.074219 -25.210938 29.59375 -24.730469 C 28.222656 -23.429688 27.195312 -21.988281 26.238281 -20.484375 C 25.894531 -20.003906 25.757812 -19.386719 25.070312 -19.113281 C 24.933594 -21.03125 24.796875 -22.878906 24.660156 -24.660156 C 24.457031 -27.128906 24.042969 -29.59375 23.085938 -31.855469 C 21.304688 -36.308594 17.125 -37.746094 12.945312 -35.417969 C 10.960938 -34.320312 9.523438 -32.675781 8.21875 -30.894531 C 7.945312 -30.414062 7.742188 -29.800781 6.988281 -29.320312 C 6.988281 -29.9375 6.988281 -30.210938 6.988281 -30.550781 C 7.125 -32.746094 6.988281 -34.9375 6.851562 -37.128906 C 6.714844 -38.773438 6.714844 -38.839844 5 -38.773438 C 4.042969 -38.703125 3.152344 -38.5 2.261719 -38.566406 C 1.234375 -38.566406 0.753906 -38.085938 0.617188 -37.128906 C 0.546875 -36.785156 0.480469 -36.511719 0.480469 -36.167969 C -0.960938 -27.195312 -1.507812 -18.222656 -0.960938 -9.109375 C -0.890625 -6.78125 -0.683594 -4.382812 -0.207031 -1.988281 C 0 -0.683594 0.207031 -0.546875 1.574219 -0.480469 C 2.535156 -0.410156 3.492188 -0.410156 4.453125 -0.410156 C 5.824219 -0.480469 5.890625 -0.546875 6.027344 -1.847656 C 6.097656 -3.152344 6.300781 -4.453125 6.371094 -5.6875 C 6.644531 -12.878906 8.769531 -19.660156 11.097656 -26.375 C 11.714844 -28.15625 12.535156 -29.867188 13.632812 -31.375 C 14.042969 -31.992188 14.453125 -32.539062 15.070312 -32.949219 C 16.03125 -33.636719 16.851562 -33.5 17.46875 -32.402344 C 18.085938 -31.304688 18.425781 -30.003906 18.703125 -28.769531 C 19.660156 -24.523438 19.867188 -20.207031 19.867188 -15.824219 C 19.933594 -11.851562 19.867188 -7.878906 19.867188 -3.835938 C 19.867188 -2.191406 19.933594 -2.125 21.648438 -1.988281 C 24.933594 -1.78125 24.386719 -1.574219 25.003906 -4.519531 C 25.894531 -8.972656 27.128906 -13.359375 28.976562 -17.605469 C 29.730469 -19.453125 30.757812 -21.03125 32.195312 -22.402344 C 32.882812 -23.085938 33.292969 -22.949219 33.566406 -22.058594 C 33.910156 -21.167969 34.113281 -20.207031 34.183594 -19.25 C 34.527344 -16.714844 34.800781 -14.25 35.417969 -11.78125 C 35.894531 -9.589844 36.582031 -7.398438 37.675781 -5.410156 C 39.527344 -2.054688 44.183594 -1.574219 46.375 -4.246094 C 46.925781 -4.933594 47.609375 -5.617188 48.089844 -6.371094 C 50.898438 -10.207031 52.609375 -14.589844 54.390625 -18.976562 C 54.597656 -19.523438 54.800781 -20.140625 54.050781 -20.414062 Z M 54.050781 -20.414062 "/></g></g></g></svg>